<svg width="16" height="17" fill="none" xmlns="http://www.w3.org/2000/svg"><g clip-path="url(#clip0_3401_867)"><path d="M15.313 7.415A1 1 0 0014.5 7h-1V6a1 1 0 00-1-1H8.167L6.434 3.7c-.174-.13-.384-.2-.6-.2H2.5a1 1 0 00-1 1v9a.5.5 0 00.5.5h11.194a.5.5 0 00.474-.342l1.78-5.342a1.003 1.003 0 00-.136-.901zM5.832 4.5L7.7 5.9A.5.5 0 008 6h4.5v1H4.36a1 1 0 00-.948.684L2.5 10.419V4.5h3.334z" fill="#0E40B4"/></g><defs><clipPath id="clip0_3401_867"><path fill="#fff" transform="translate(0 .5)" d="M0 0h16v16H0z"/></clipPath></defs></svg>