<svg width="16" height="17" fill="none" xmlns="http://www.w3.org/2000/svg"><g clip-path="url(#clip0_3405_957)"><path d="M10.75 8a2.75 2.75 0 11-5.5 0 2.75 2.75 0 015.5 0zm3.75.5A6.5 6.5 0 118 2a6.507 6.507 0 016.5 6.5zm-1 0a5.506 5.506 0 00-5.717-5.496C4.84 3.118 2.492 5.57 2.5 8.516a5.478 5.478 0 001.39 3.635c.364-.528.825-.98 1.36-1.332a.25.25 0 01.302.02 3.739 3.739 0 004.892 0 .25.25 0 01.302-.02 4.98 4.98 0 011.362 1.332A5.476 5.476 0 0013.5 8.5z" fill="#202224"/></g><defs><clipPath id="clip0_3405_957"><path fill="#fff" transform="translate(0 .5)" d="M0 0h16v16H0z"/></clipPath></defs></svg>