<svg width="24" height="24" fill="none" xmlns="http://www.w3.org/2000/svg"><g clip-path="url(#clip0_1682_5777)"><path d="M20.03 7.72l-5.25-5.25a.75.75 0 00-.53-.22h-9a1.5 1.5 0 00-1.5 1.5v16.5a1.5 1.5 0 001.5 1.5h13.5a1.5 1.5 0 001.5-1.5v-12a.75.75 0 00-.22-.53zm-5.25 6.31a.747.747 0 01-1.06 0l-.97-.97v4.19a.75.75 0 11-1.5 0v-4.19l-.97.97a.75.75 0 11-1.06-1.06l2.25-2.25a.747.747 0 011.06 0l2.25 2.25a.747.747 0 010 1.06zm-.53-5.78V4.125l4.125 4.125H14.25z" fill="#EFF0F4"/></g><defs><clipPath id="clip0_1682_5777"><path fill="#fff" d="M0 0h24v24H0z"/></clipPath></defs></svg>